# xmcd
#
# Track frame offsets: 
#        150
#        13105
#        27922
#        41903
#        55687
#        70950
#        98306
#        113402
#        129541
#        145751
#        161706
#        174740
#        190879
#        205181
#        221830
#        237149
#
# Disc length: 3526 seconds
#
# Revision: 0
# Processed by: cddbd v1.5.2PL0 Copyright (c) Steve Scherf et al.
# Submitted via: ExactAudioCopy v1.1
#
DISCID=dd0dc410
DTITLE=Yves Segers - Het Dak Eraf
DYEAR=2017
DGENRE=Pop-Folk
TTITLE0=Ayayay, Het Dak Eraf
TTITLE1=Waar Zijn Die Handjes
TTITLE2=Waait, Waait Weg
TTITLE3=Leve, Leve De Liefde (2017)
TTITLE4=Laat De Zon In Je Hart (Walsversie)
TTITLE5=Treinmedley
TTITLE6=Iedereen Doet 't
TTITLE7=Frankie (Ode Aan Weerman Frank Deboosere)
TTITLE8=Cowboys and Indianen - Het Vliegerlied
TTITLE9=Ik Schreeuw Het Van De Daken (Après-Ski Versie)
TTITLE10=Waar Is Mijn Vleeskroket
TTITLE11=Funkhauser Feat. Yves Segers - Leo
TTITLE12=De Countrydans
TTITLE13=Echte Vrienden
TTITLE14=Café De Zwaan (2017)
TTITLE15=Hitmedley
EXTD=
EXTT0=
EXTT1=
EXTT2=
EXTT3=
EXTT4=
EXTT5=
EXTT6=
EXTT7=
EXTT8=
EXTT9=
EXTT10=
EXTT11=
EXTT12=
EXTT13=
EXTT14=
EXTT15=
PLAYORDER=
